<?xml version="1.0" encoding="utf-8"?>
<!-- Generator: Adobe Illustrator 25.4.1, SVG Export Plug-In . SVG Version: 6.00 Build 0)  -->
<svg version="1.1" id="Layer_1" xmlns="http://www.w3.org/2000/svg" xmlns:xlink="http://www.w3.org/1999/xlink" x="0px" y="0px"
	 viewBox="0 0 800 800" style="enable-background:new 0 0 800 800;" xml:space="preserve">
<style type="text/css">
	.st0{opacity:0.2784;fill:#00FF00;}
	.st1{fill:#FF7B00;}
	.st2{fill:#FFEA00;}
	.st3{fill:#FF2600;}
	.st4{fill:none;stroke:#FFFFFF;stroke-miterlimit:10;}
	.st5{fill:none;stroke:#65A105;stroke-miterlimit:10;}
	.st6{fill:#14E2F7;}
	.st7{fill:#FFFFFF;}
	.st8{fill:#FF9705;}
	.st9{fill:#007BFF;}
	.st10{fill:#BB00FF;}
	.st11{fill:#ED7B39;}
	.st12{fill:#4C1900;}
	.st13{fill:#8C00BF;}
	.st14{fill:#C2C2C2;}
	.st15{fill:#FFD000;}
	.st16{fill:#FF6F00;}
	.st17{fill:#FF2200;}
	.st18{fill:#B71F0F;}
	.st19{fill:#574B4A;}
	.st20{fill:none;stroke:#00345B;stroke-width:2;stroke-miterlimit:10;}
	.st21{fill:#232A30;}
	.st22{fill:none;stroke:#574B4A;stroke-miterlimit:10;}
	.st23{fill:#FF1100;}
	.st24{fill:#36CCE3;}
	.st25{fill:#A8F035;}
	.st26{fill:#F7961D;}
</style>
<path class="st0" d="M199.9,555.08c-17.81-7.24-38.87-2.49-54.7,8.42s-27.15,27.22-36.31,44.12c-15.6,28.8-25.72,64.66-10.6,93.72
	c19.51,37.5,69.98,44.9,112.05,40.78c92.87-9.09,188.06-50.83,275.97-19.55c20.3,7.22,39.1,18.11,59.11,26.09
	c58.64,23.38,127.36,20,183.41-9.04c6.2-3.21,12.48-6.93,16.34-12.75c3.61-5.45,4.71-12.14,5.55-18.62
	c6.19-48.01,1.29-100.6-29.25-138.16C691.3,533,642.46,517.59,596.2,505.47c-73.77-19.33-149.6-35.2-225.73-30.67
	c-76.13,4.52-153.39,31.46-205.79,86.87C166.71,556.81,168.75,551.96,199.9,555.08z"/>
<path class="st1" d="M23.16,148.97"/>
<path class="st1" d="M21.36,149.36c-3.63,11.45,5.62,24.11,16.08,30.02s23,6.58,35.01,6.51c10.45-0.05,21.63-0.8,29.94-7.13
	c3.69-2.81,7.72-3.29,12.13-1.84c1.66,0.54,15.81,15.57,22.7,22.69c6.89,7.11,16.8,12.57,26.46,10.38
	c-7.6-21.22-22.31-39.83-41.2-52.13c-4.42-2.87-9.16-5.45-14.35-6.35c-5.08-0.87-10.3-0.08-15.32,1.1
	c-9.11,2.13-17.92,5.54-26.1,10.07c-3.95,2.19-7.62,5.67-12.12,5.96C43.75,169.34,27.15,157.06,21.36,149.36z"/>
<path class="st2" d="M166.66,208.11c34.31,4.57-5.91-36.96-16.15-49.16c-10.24-12.2-25.72-21.17-41.56-19.45
	c-16.86,1.83-39.86,14.48-54.75,6.37c-14.26-7.77-40.03,2.25-32.08,7.49c4.41,2.91,16.67,20.67,28.16,20.67
	c31.93,0,53.19-16.88,63.87-12.64c12.55,4.98,19.7,17.86,27.21,29.07C148.88,201.68,159.89,213.05,166.66,208.11z"/>
<path class="st2" d="M255.09,201.06c-14.26-20.45-20.92-45.53-22.11-70.43c-0.57-11.83,0.08-23.93,4.21-35.04
	c4.91-13.2,13.02-25.3,22.29-35.91c11.48-13.13,10.86-17.42,40.71-23.77c1.69-0.36-12.81,19.64-18.92,44.17
	c-5.01,20.12,9.83,39.94,15.02,60.01c6.48,25.02,4.42,52.17-5.75,75.93"/>
<path class="st1" d="M252.96,184.74c-3.1-11.98-11.57-48.17-4.75-80.26c2.19-10.31,6.55-19.3,8.98-24.71
	c9.39-20.94,16.1-25.08,18.96-26.56c4.92-2.56,9.74-3.16,13.08-3.24c-8.53,9.26-18.78,23.57-19.16,41.42
	c-0.33,15.63,8.22,24.08,13.01,41.22c4.68,16.76,9.72,48.15,5.07,64.64c-2.34-2.71-10.15,1.17-20.33-1.59
	C260.75,193.73,256.38,184.11,252.96,184.74z"/>
<path class="st2" d="M154.39,207.5c10.57,29.22-19.64,59.26-15.88,90.11c1.74,14.24,10.87,26.91,22.67,35.07s26.02,12.2,40.26,13.94
	c27.9,3.41,57.23-1.91,80.83-17.18c23.6-15.28,40.84-40.92,43.58-68.89c0.32-3.24,0.41-6.66-1.07-9.56
	c-2.59-5.06-6.75-21.73-11.69-31.33c-13.71-26.63-66.33-40.3-96.15-37.53c-13.65,1.27-27.54,4.07-39.05,11.53
	c-11.5,7.45-17,19.12-19.8,5.67C157.29,195.49,153.33,203.94,154.39,207.5z"/>
<path class="st2" d="M217.49,602.46c-4.37,17.87-8.62,37.32-1.14,54.12c2.36,5.3,7.58,10.76,13.09,8.92
	c4.95-1.65,6.32-7.87,6.86-13.06c1.51-14.42,2.69-28.87,3.55-43.34c0.15-2.45,0.19-5.2-1.47-7.01c-1.73-1.9-4.61-2.05-7.18-2.06
	C225.66,600.01,220.12,599.99,217.49,602.46z"/>
<path class="st2" d="M302.81,601.19c-5.6,15.27-3.83,33.06,4.65,46.94c2.48,4.06,7.26,8.22,11.43,5.92
	c2.94-1.62,3.55-5.52,3.83-8.87c0.73-8.92,1.46-17.83,2.19-26.75c0.42-5.11,0.81-10.43-1.08-15.19s-6.81-8.74-11.84-7.78
	C310.5,595.75,309.13,596.42,302.81,601.19z"/>
<path class="st3" d="M213.02,645.44c-0.75,1.97-2.19,3.68-4.01,4.75c-1.26,0.74-2.67,1.18-3.96,1.85c-3.57,1.86-6.09,5.61-6.46,9.62
	c-0.16,1.76,0.17,3.74,1.57,4.82c1.16,0.9,2.75,0.94,4.22,0.95c6.75,0.02,13.51,0.04,20.26,0.06c3.18,0.01,6.68-0.09,9.06-2.2
	c2.4-2.12,2.93-5.64,2.83-8.84c-0.1-3.67,2.66-7.91,1.36-11.34C230.51,643.15,219.13,643.69,213.02,645.44z"/>
<path class="st3" d="M323.97,632.37c0.73,1.97,2.12,3.68,3.88,4.75c1.21,0.74,2.58,1.18,3.83,1.85c3.45,1.86,5.88,5.61,6.24,9.62
	c0.16,1.76-0.17,3.74-1.52,4.82c-1.12,0.9-2.66,0.94-4.08,0.95c-6.53,0.02-13.05,0.04-19.58,0.06c-3.08,0.01-6.46-0.09-8.76-2.2
	c-2.31-2.12-2.83-5.64-2.74-8.84c0.1-3.67-2.57-7.91-1.32-11.34C307.06,630.07,318.06,630.62,323.97,632.37z"/>
<path class="st4" d="M210.97,650.28c-1.3-1.25-2.03-3.03-3.4-4.21c-1.37-1.18-3.94-1.34-4.63,0.33c-0.65,1.58,0.91,3.15,2.35,4.07
	c1.47,0.93,3.37,1.77,4.87,0.88c0.22-2.28,0.97-4.47,1.85-6.58c0.6-1.43,1.29-2.9,2.5-3.87c1.21-0.98,3.06-1.32,4.31-0.39
	c1.03,0.77,1.39,2.21,1.13,3.47s-1.01,2.36-1.86,3.32c-1.36,1.53-3.12,2.87-5.16,3.01c-0.91,0.07-1.96-0.07-2.63,0.55
	c-0.35,0.32-0.52,0.8-0.66,1.25c-1.27,4.17-1.07,8.77,0.55,12.82c-1.26-4.38-0.51-9.05,0.24-13.55c0.12-0.72,0.45-1.62,1.18-1.6
	c0.67,0.02,0.98,0.81,1.25,1.43c0.78,1.77,2.48,2.91,3.82,4.31c2.87,3,4.12,7.46,3.22,11.51c0.09-0.34,0.19-0.69,0.28-1.03"/>
<path class="st4" d="M329.66,635.34c1.54-1.25,2.4-3.03,4.01-4.21c1.62-1.18,4.66-1.34,5.47,0.33c0.77,1.58-1.07,3.15-2.78,4.07
	c-1.74,0.93-3.98,1.77-5.76,0.88c-0.26-2.28-1.14-4.47-2.18-6.58c-0.71-1.43-1.53-2.9-2.96-3.87c-1.43-0.98-3.62-1.32-5.09-0.39
	c-1.22,0.77-1.64,2.21-1.34,3.47c0.3,1.26,1.2,2.36,2.2,3.32c1.6,1.53,3.69,2.87,6.1,3.01c1.08,0.07,2.31-0.07,3.11,0.55
	c0.41,0.32,0.61,0.8,0.78,1.25c1.51,4.17,1.27,8.77-0.65,12.82c1.49-4.38,0.61-9.05-0.28-13.55c-0.14-0.72-0.53-1.62-1.39-1.6
	c-0.79,0.02-1.16,0.81-1.48,1.43c-0.93,1.77-2.93,2.91-4.51,4.31c-3.39,3-4.87,7.46-3.8,11.51c-0.11-0.34-0.22-0.69-0.34-1.03"/>
<path class="st5" d="M358.15,418.73"/>
<path class="st5" d="M325.21,430.06"/>
<path class="st5" d="M186.05,388.14"/>
<path class="st6" d="M263.17,531.37c-6.56,23.48-16.97,59.71-21.11,83.74c3.15-0.1,6.31-0.1,9.46-0.2
	C255.01,590.82,264.75,554.41,263.17,531.37z"/>
<path class="st6" d="M275.02,534.7c9.45,22.48,28.18,56.34,35.29,79.66c-3.14,0.29-6.67,0.69-9.81,0.99
	C294.03,591.89,276.33,557.75,275.02,534.7z"/>
<circle class="st7" cx="179.49" cy="263.78" r="12.19"/>
<path class="st8" d="M164.38,263.09c0.98,3,1.96,5.99,2.94,8.99c2.58-6.23,7.1-11.13,12.36-13.41c-1.15,4.58-1.7,9.65-0.32,14.13
	c1.38,4.48,5.14,8.02,8.87,7.11c2.67-0.66,4.81-3.46,5.73-6.7c0.92-3.24,0.77-6.84,0.1-10.17c-0.79-3.97-2.29-7.7-4.36-10.85
	c-1.27-1.93-2.82-3.7-4.74-4.37c-2.04-0.71-4.23-0.08-6.22,0.85C173.04,251.35,168.11,256.61,164.38,263.09z"/>
<circle class="st7" cx="272.03" cy="245.27" r="12.19"/>
<path class="st8" d="M285.36,238.11c0.41,3.12,0.83,6.25,1.24,9.37c-5.02-4.5-11.21-6.96-16.94-6.74c3.02,3.63,5.71,7.97,6.4,12.6
	s-1.16,9.46-4.92,10.24c-2.69,0.56-5.84-1.04-8.07-3.56c-2.23-2.52-3.65-5.83-4.49-9.13c-1-3.92-1.26-7.94-0.77-11.67
	c0.31-2.29,0.94-4.56,2.38-5.99c1.53-1.53,3.78-1.9,5.97-1.92C272.47,231.26,279.19,233.87,285.36,238.11z"/>
<path class="st8" d="M214.72,258.39c1.54,2.07,4.33,2.98,6.89,2.66s4.89-1.71,6.77-3.47c0.19-0.18,0.39-0.38,0.46-0.63
	C229.1,255.99,218.75,256.73,214.72,258.39z"/>
<path class="st9" d="M537.41,497.88c-4.61,34.17-9.22,68.34-13.83,102.5c-1.16,8.6-2.31,17.44-0.3,25.89s7.92,16.54,16.36,18.55
	c10.41,2.48,21.08-5.19,25.68-14.84c4.6-9.66,4.6-20.78,4.52-31.48c10.72-109.12,22.11-1.9,33.16-2.85
	c-0.33,11.4,3.08,20.22,5.15,33.41c1.76,11.27,17.84,17.25,28.41,12.96c11.19-4.54,14.65-18.57,15.31-30.63
	c2.94-53.42-19.18-105.62-18.34-159.12c0-0.65,0-1.29,0-1.94"/>
<path class="st10" d="M521.99,368.15c-4.47,38.82-11.28,77.38-20.37,115.39c-4.67,19.52-10.05,39.17-20.21,56.49
	c10.21,5.14,15.9,11.09,32.21,13.03c7.22-20.46,25.23-46.68,28.85-69.34c6.2-38.86,11.88-78.18,7.92-117.38
	c-0.35-0.11-0.69-0.23-1.04-0.34"/>
<path class="st9" d="M534.42,324.47c0.1,28.39-19.44,52.54-29.71,79c-8.8,22.68-12.53,42.73-7.37,66.5
	c1.36,6.26-11.53,33.53,5.29,33.53c8.29,0,22.06-29.48,22.87-35.04c1.82-12.59,13.11-77.7,12.4-90.4
	c-0.31,14.52,12.11,117.45-2.01,109.22c-0.48-0.28-1.75,8.1,0.19,12.24c4.58,9.76,16.35,13.51,26.94,15.58
	c22.91,4.49,49.97,4.66,65.7-12.58c15.19-16.65-6.56-120.14-7.92-142.67c-0.92,8.69,27.3,123.46,35.92,122.05
	c10.28-1.68,14.9-26.81,12.54-35.38c-9.63-34.95-0.23-54.01-17.63-77.15c-12.23-16.26-15.61-10.9-21.77-18.07
	c-12.48-14.54-12.78-35.59-12.43-54.74"/>
<path class="st7" d="M547.67,336.9c2.45,14.04-0.28,28.39-2.36,42.48c-4.51,30.63-5.95,61.61-7.39,92.53
	c-0.05,0.98-0.09,1.99,0.25,2.91c1.1,2.98,5.13,3.27,8.3,3.09c23.04-1.34,46.23-0.11,69,3.65c3,0.5,6.65,0.8,8.51-1.6
	c1.22-1.57,1.17-3.74,1.07-5.73c-2.37-46.42-5.12-92.82-8.24-139.19"/>
<path class="st11" d="M522.32,615.59c-1.27,3.54-1.71,7.38-1.26,11.12c0.15,1.22,0.38,2.49-0.04,3.65c-0.69,1.93-2.87,2.8-4.72,3.69
	c-2.08,1-4.18,2.51-4.75,4.75c-0.97,3.77,2.83,7.12,6.55,8.27c3.81,1.18,7.87,1.16,11.86,1.13c12.26-0.08,24.52-0.17,36.78-0.25
	c0.56,0,1.14-0.02,1.62-0.3c0.96-0.57,1.04-1.9,0.99-3.02c-0.4-9.5,3.98-21.76,1.55-30.95"/>
<path class="st11" d="M651.99,613.68c1.3,3.54,1.75,7.38,1.29,11.12c-0.15,1.22-0.39,2.49,0.04,3.65c0.71,1.93,2.93,2.8,4.82,3.69
	c2.13,1,4.27,2.51,4.86,4.75c0.99,3.77-2.9,7.12-6.7,8.27c-3.9,1.18-8.05,1.16-12.13,1.13c-12.54-0.08-25.08-0.17-37.62-0.25
	c-0.57,0-1.17-0.02-1.66-0.3c-0.98-0.57-1.06-1.9-1.01-3.02c0.41-9.5,1.87-18.96,4.36-28.15"/>
<path class="st12" d="M511.83,641.73c-0.97,3.77,2.55,4.18,6.27,5.33c3.81,1.18,7.87,1.16,11.86,1.13
	c12.26-0.08,24.52-0.17,36.78-0.25c0.56,0,1.1-0.1,1.62-0.3c2.29-0.88,1.07-4.05,1.03-5.17"/>
<path class="st12" d="M663.16,638.76c0.98,3.77-2.55,5.39-6.31,6.54c-3.86,1.18-9.05,1.02-13.09,1
	c-12.41-0.08-24.83-0.17-37.24-0.25c-0.56,0-1.12-0.1-1.64-0.3c-2.32-0.88-1.09-4.05-1.04-5.17"/>
<path class="st13" d="M537.53,401.7c-13.08,53.33-30.32,105.64-51.5,156.29c11.43,2.93,22.32,7.98,31.96,14.8
	c0.78,0.55,1.67,1.15,2.62,1c1.36-0.21,2-1.75,2.39-3.07c16.98-57.14,24.95-116.49,32.87-175.57
	C549.9,397.51,543.94,399.86,537.53,401.7z"/>
<path class="st14" d="M556.66,489.69c5.57-20.69,9.14-41.92,10.66-63.3c0.02,25.15-0.27,51.53-12.39,73.56
	c-0.25,0.46-0.9,0.74-0.89,1.26S553.69,500.72,556.66,489.69z"/>
<path class="st15" d="M544.23,476.17c-12.02,49.86-20.22,94.88-27.68,145.62c19.9,2.27,36.67-1.81,56.44,1.38
	c0.03-28.54,6.68-63.91,12.35-64.32c1.06-0.08,9.55,37.45,13.73,58.15c0.23,1.14,0.54,2.38,1.48,3.05c0.6,0.43,1.35,0.55,2.08,0.65
	c12.48,1.71,43.7,3.3,58.15-4.25c5.62-2.93-5.06-27.23-9.03-40.52c-11.79-39.46-14.03-60.75-14.31-101.93"/>
<path class="st16" d="M552.46,471.44c-0.21,2.91,0.48,5.88,1.96,8.39c13.24-0.26,26.49-0.53,39.73-0.79
	c2.03-0.04,4.18-0.11,5.92-1.16c3.01-1.82,3.59-6.61,1.1-9.1c-1.92-1.92-4.87-2.26-7.58-2.45c-15.93-1.11-31.97-0.72-47.83,1.16
	C546.38,467.26,546.99,467.02,552.46,471.44z"/>
<path class="st17" d="M533.32,338.18c-21.45,42.46-43.42,82.92-42.28,130.48c0.03,1.16,1.82,6.42,2.33,7.47
	c1.83,3.76,31.39,9.03,34.03,5.79c8.01-9.82,2.26-74.99,11.08-72.46c1.17-2.6-5.09,88.06-6.09,101.7
	c-0.58,7.84-1.16,15.69-2.52,23.43c-1.8,10.25-4.96,20.2-8.1,30.12c-2.83,8.93-5.87,18.21-12.48,24.85
	c16.34-2.82,32.67-5.65,49.01-8.47c1.13-0.2,2.35-0.44,3.11-1.3c0.76-0.86,0.85-2.1,0.9-3.25c1.94-48.31-10.17-96.38-7.98-144.67
	c1.3-28.58,7.65-56.93,18.68-83.33C559.4,345.77,544.28,342.12,533.32,338.18z"/>
<path class="st17" d="M592.92,345.89c-2.94,74.69-0.69,149.58,6.75,223.96c0.31,3.05,0.84,6.5,3.38,8.22
	c1.21,0.82,2.69,1.1,4.12,1.37c19.8,3.65,40.12,7.27,59.94,3.75c-15.23-26.44-23.65-56.77-24.22-87.28
	c-0.17-9.29-17.08-101.19-18.69-110.34c-1.35-7.7,17.22,101.41,24.72,80.32c1.82-5.13,21.49,2.49,21.9,0
	c4.46-27.24-5.2-90.18-27.86-106.3c-5.04-3.58-12.34-5.39-14.85-11.03C622.19,335.27,619.06,335.14,592.92,345.89z"/>
<circle class="st18" cx="610.52" cy="495.64" r="5.69"/>
<rect x="539.99" y="495.64" class="st18" width="9.39" height="2.8"/>
<circle class="st18" cx="610.9" cy="515.05" r="5.69"/>
<rect x="539.26" y="514.87" class="st18" width="9.39" height="2.8"/>
<path class="st10" d="M520.3,359.86c30.42-1.21,106.95-15.98,106.27-19.43c-1-5.08-2-10.15-3-15.23c-0.63-3.19-0.1-8.91-2.94-10.79
	c-2.28-1.5-6.65,0.65-9.44,0.71c-27.2,0.6-53.85,6.85-80.22,13.06C530.79,330.95,519.05,348.23,520.3,359.86z"/>
<path class="st19" d="M452.43,246.06c-1.23-1.33-2.81-2.79-4.59-2.45c-1.07,0.2-1.9,1.01-2.61,1.84c-0.54,0.63-1.05,1.3-1.38,2.06
	c-0.92,2.14-0.09,4.89,1.87,6.16c0.6,0.39,1.28,0.65,1.97,0.84c0.75,0.21,1.54,0.34,2.3,0.21c2.2-0.4,3.38-2.87,3.56-5.1
	c0.12-1.43-0.04-2.88-0.45-4.26C452.98,244.95,452.73,244.48,452.43,246.06z"/>
<path class="st13" d="M525.57,341.74c-4.8-0.75-9.85,2.93-11.18,8.15c-1.33,5.22,1.22,11.33,5.65,13.54
	c2.64,1.31,5.63,1.31,8.52,1.25c27.17-0.56,54.3-3.96,80.91-10.14c5.05-1.17,10.15-2.48,14.71-5.17c4.56-2.7,8.59-6.99,10.16-12.49
	c0.9-3.13,0.9-6.78-0.77-9.49c-3.27-5.3-10.39-4.25-15.97-2.7C586.08,333.44,553.87,339.13,525.57,341.74z"/>
<path class="st9" d="M504.37,194.46c-21.99-6.74-48.37,0.01-61.96,18.56c-3.87,5.28-6.7,11.55-6.76,18.09s3.05,13.33,8.75,16.54
	c6.52,3.68,14.99,2.01,21.21-2.16s10.65-10.44,14.94-16.57c3.64-5.19,7.28-10.39,10.92-15.58
	C495.4,207.71,499.92,201.68,504.37,194.46z"/>
<path class="st9" d="M575.1,182.22c20.13-18.31,51.23-27.2,74.33-18.45c6.57,2.49,12.51,6.43,15.64,12.17
	c3.13,5.75,3.02,13.48-1.51,19.53c-5.18,6.91-14.94,10.21-23.48,10.01c-8.54-0.19-16.18-3.24-23.6-6.24
	c-6.29-2.54-12.58-5.08-18.87-7.63C590.82,188.87,583.2,186.09,575.1,182.22z"/>
<path class="st9" d="M592.12,169.35c-21.97-3.44-73.63,4.05-89.83,20.16c-7.69,7.64-13.23,17.42-20.72,25.28
	c-9.74,10.22-22.81,17.31-29.51,29.98c-6.42,12.15-5.54,27.68,0.3,40.15c5.84,12.47,16.11,22.12,27.47,29.1
	c33.18,20.36,74.58,18.95,111.85,9.44c21.07-5.38,42.24-13.53,58.1-29.21c15.86-15.67,25.36-40.25,19.04-62.24
	C663.05,211.89,614.1,172.79,592.12,169.35z"/>
<path class="st20" d="M565.06,282.86c3.35-2.07,9.2-5.04,16.98-5.84c3.93-0.4,7.37-0.16,10.08,0.27"/>
<path class="st20" d="M522.84,265.63c0.88,0.21,6.48,1.48,11.53-2.1c3.61-2.55,4.87-6.11,5.24-7.34"/>
<path class="st20" d="M614.69,255.67c-0.88,0.21-6.48,1.48-11.53-2.1c-3.61-2.55-4.87-6.11-5.24-7.34"/>
<path class="st21" d="M601.25,239.14"/>
<path class="st21" d="M579.78,267.94"/>
<path class="st19" d="M288.79,184.2"/>
<path class="st19" d="M288.6,186.18c-1.37-0.53-5.28,0.29-6.16,1.52c-1.08,1.5-1.35,3.6-0.68,5.35c0.67,1.74,2.25,3.07,4.01,3.37
	c0.59,0.1,1.21,0.09,1.77-0.12c0.98-0.37,1.68-1.31,2.1-2.32C290.43,192.1,289.81,186.65,288.6,186.18z"/>
<path class="st22" d="M284.23,187.45c53.73,37.34,77.41,114.61,82.96,121.28c12.62,15.18,9.58,10.65,19.94,23.39
	c1.49,1.83,3.59,4.5,5.25,8.39c1.79,4.21,2.22,10.66,1.12,29.9c-0.45,7.89-7.51,91.43-14.06,95.47
	c11.87-29.08,12.16-73.5,13.98-95.42c2.31-27.76,10.89-20.8,16.26-48.09c5.36-27.3,21.65-49.08,37.94-71.22c1.33-1.81-5.48-0.33,0,0
	"/>
<path class="st23" d="M326.06,507.22l-12-32.18c-0.95-2.55,0.35-5.4,2.9-6.35l55.02-20.51c2.55-0.95,5.4,0.35,6.35,2.9l12,32.18
	c0.95,2.55-0.35,5.4-2.9,6.35l-55.02,20.51C329.86,511.07,327.02,509.77,326.06,507.22z"/>
<path class="st19" d="M327.63,501.76l-8.74-23.43c-0.95-2.55,0.35-5.4,2.9-6.35l49.22-18.35c2.55-0.95,5.4,0.35,6.35,2.9l8.74,23.43
	c0.95,2.55-0.35,5.4-2.9,6.35l-49.22,18.35C331.43,505.62,328.59,504.32,327.63,501.76z"/>
<path class="st2" d="M208.77,315.83c3.89,23.49,3.44,47.69-1.32,71.01c-0.87,4.28-2.08,8.84-5.43,11.64
	c-6.02,5.02-15.58,1.5-20.72-4.42c-5.13-5.92-7.7-13.66-12.47-19.87c-4.77-6.21-13.55-10.8-20.36-6.93
	c-7.79,4.43-7.09,15.97-3.73,24.28c5.95,14.68,17.05,27.21,30.89,34.88c6.59,3.66,13.85,6.29,19.63,11.13
	c17.58,14.69,14.83,42.18,23.87,63.23c0.73,1.7,1.59,3.43,3.07,4.54c1.93,1.45,4.53,1.57,6.94,1.61c33.21,0.5,39.03,3.5,71.18-4.81
	c3.17-0.82,10.11,10.52,12.09,7.92c2.89-3.79,14.29-18.63,12.84-23.17c-6.32-19.76-9.16-84.03-16.99-103.24
	c5.37,4.82,23.91,42.17,23.52,49.38c-0.21,3.94,28.76,52.22,35.16,48.9c19.56-10.14-22.1-59.32-22.36-67.98
	c-0.63-20.81-4.27-24.75-21.58-36.32c-9.86-6.59-21.37-10.43-31.09-17.23c-22.39-15.67-31.76-47.53-21.43-72.83"/>
<path class="st24" d="M214.72,504.86c-0.15,28.89-5.82,110.4-2.46,110.56c14.14,0.67,34.27-0.98,48.41-0.31
	c2.96-22.88,6.12-59.27,8.91-82.2c0.56,22.76,26.32,82.92,27.75,82.77c13.84-1.4,27.68-2.8,41.52-4.21
	c-4.14-17.29-20.09-96-20.09-120.1"/>
<path class="st25" d="M280.75,349.44c8.08-2.55,84.56,43.56,78.99,71.45c-1.93,9.65-12.91,10.19-21.22,15.89
	c-3.6,2.47-8.51,1.36-10.89-2.3c-8.41-13.01-14.46-35.7-17.32-39.18c10.84,20.85,10.48,59.53,19.81,81.1
	c1.18,2.72,6.29,20.74,4.22,22.87c-0.77,0.79-120.03,14.15-119.58,6.19c0.9-16.04-6.77-43.1-11.85-58.34
	c-0.94-2.81-7.31-8.01-11.18-8.05c-21.49-0.23-28.37-14.01-35.56-25.37c-1.79-2.83-2.84-5.37-3.4-6.92c3.88-4,8.41-8.24,13.6-12.55
	c4.75-3.95,9.74-7.65,14.98-11.03c2.75,3.46,5.5,6.93,8.25,10.39c1.41,1.78,2.98,3.67,5.18,4.26c2.98,0.8,6.15-1.18,7.71-3.85
	c1.55-2.67,4.16-10.32,4.98-13.3c2.42-8.75,2.69-21.41,3.86-20.84c15.79-1.73,23.4-2.42,35.31-3.32
	C261.54,355.4,269.51,349.9,280.75,349.44"/>
<path class="st26" d="M240,269.49c4.23-1.95,0.96,21.78,0.7,35.72c-0.06,3.36-1.06,8.44-3.82,10.37c-2.45,1.71-4.11,1.09-6.5-0.7
	c-2.39-1.79-3.9-4.51-5.19-7.2c-5.3-11.07-8.42-23.17-9.12-35.42C223.51,271.08,244.18,267.94,240,269.49z"/>
</svg>
